<svg width="132" height="144" viewBox="0 0 132 144" fill="none" xmlns="http://www.w3.org/2000/svg">
    <path d="M1.52769 133.133C1.52769 139.413 6.76545 143.813 13.3127 143.813C19.9021 143.813 25.1399 139.413 25.1399 133.133C25.1399 126.893 19.9021 122.453 13.3127 122.453C6.76545 122.453 1.52769 126.893 1.52769 133.133ZM6.93441 133.133C6.93441 129.373 9.84897 126.773 13.3127 126.773C16.8186 126.773 19.7331 129.373 19.7331 133.133C19.7331 136.933 16.8186 139.493 13.3127 139.493C9.84897 139.493 6.93441 136.933 6.93441 133.133ZM26.2522 143.333H32.208L35.9251 137.653C36.2208 137.213 36.5587 136.573 36.5587 136.573H36.6432C36.6432 136.573 36.9389 137.253 37.2346 137.653L40.9939 143.333H46.9498L39.8957 133.013L43.4861 127.933C43.9085 127.333 44.2464 127.253 45.1335 127.253H46.6541V122.933H42.937C41.1207 122.933 40.4026 123.293 39.4311 124.853L37.319 128.213C37.0234 128.733 36.6432 129.533 36.6432 129.533H36.5587C36.5587 129.533 36.1786 128.733 35.8829 128.213L33.7709 124.853C32.7994 123.293 32.0391 122.933 30.265 122.933H26.5056V127.253H28.0685C28.9555 127.253 29.2935 127.333 29.7159 127.933L33.264 133.013L26.2522 143.333ZM51.5399 136.053C51.5399 141.613 54.3699 143.813 58.9741 143.813C62.6912 143.813 65.3946 141.693 66.4083 139.573H66.4928C66.4928 139.573 66.4506 140.013 66.4506 140.493V141.053C66.4506 142.493 67.4221 143.333 69.2807 143.333H74.2227V139.053H72.5331C71.9418 139.053 71.6039 138.733 71.6039 138.173V122.933H66.2394V132.293C66.2394 135.933 64.0851 139.173 60.1991 139.173C57.5379 139.173 56.8621 137.493 56.8621 135.013V125.613C56.8621 123.773 56.0173 122.933 54.032 122.933H48.921V127.253H50.6106C51.2019 127.253 51.5399 127.533 51.5399 128.133V136.053ZM78.0666 143.333H83.2621V138.253H78.0666V143.333ZM87.6551 137.453C87.6551 141.533 91.161 143.813 95.0048 143.813C99.8624 143.813 101.51 140.213 101.51 140.213H101.594C101.594 140.213 101.552 140.573 101.552 141.093C101.552 142.293 102.312 143.333 104.298 143.333H109.113V139.053H107.423C106.832 139.053 106.494 138.733 106.494 138.173V130.573C106.494 126.013 104.382 122.453 97.2013 122.453C94.9626 122.453 89.3024 122.853 89.3024 126.653V128.813H94.2867V127.733C94.2867 126.613 96.1875 126.373 97.159 126.373C99.9046 126.373 101.13 127.453 101.13 130.373V130.533H100.454C96.9478 130.533 87.6551 131.053 87.6551 137.453ZM93.0618 137.213C93.0618 134.373 97.497 134.013 100.285 134.013H101.214V134.493C101.214 136.973 99.1866 139.853 96.3142 139.853C94.1178 139.853 93.0618 138.573 93.0618 137.213ZM111.056 143.333H127.783C129.768 143.333 130.613 142.533 130.613 140.613V137.013H125.756V138.133C125.756 138.733 125.418 139.013 124.826 139.013H120.095C118.701 139.013 118.068 139.133 118.068 139.133V139.053C118.068 139.053 118.913 138.293 119.884 137.173L129.811 125.693V122.933H114.013C111.985 122.933 111.14 123.773 111.14 125.653V129.293H115.998V128.133C115.998 127.573 116.336 127.253 116.927 127.253H120.813C122.165 127.253 122.799 127.173 122.799 127.173V127.253C122.799 127.253 121.954 127.973 120.982 129.133L111.056 140.613V143.333Z" fill="#1894A0"/>
    <path d="M114 48C114 74.5097 92.5097 96 66 96C39.4903 96 18 74.5097 18 48C18 21.4903 39.4903 0 66 0C92.5097 0 114 21.4903 114 48ZM28.2892 48C28.2892 68.8271 45.1729 85.7108 66 85.7108C86.8271 85.7108 103.711 68.8271 103.711 48C103.711 27.1729 86.8271 10.2892 66 10.2892C45.1729 10.2892 28.2892 27.1729 28.2892 48Z" fill="#1894A0"/>
    <rect x="86.8" y="26.3999" width="9.6" height="41.6" rx="4.8" transform="rotate(90 86.8 26.3999)" fill="#1894A0"/>
    <rect x="86.8" y="43.1995" width="9.6" height="41.6" rx="4.8" transform="rotate(90 86.8 43.1995)" fill="#1894A0"/>
    <rect x="73.2" y="60" width="9.6" height="28" rx="4.8" transform="rotate(90 73.2 60)" fill="#1894A0"/>
</svg>