<svg width="132" height="22" viewBox="0 0 132 22" fill="none" xmlns="http://www.w3.org/2000/svg">
    <path d="M1.52698 11.1332C1.52698 17.4132 6.76474 21.8132 13.3119 21.8132C19.9014 21.8132 25.1391 17.4132 25.1391 11.1332C25.1391 4.89325 19.9014 0.453247 13.3119 0.453247C6.76474 0.453247 1.52698 4.89325 1.52698 11.1332ZM6.9337 11.1332C6.9337 7.37325 9.84826 4.77325 13.3119 4.77325C16.8179 4.77325 19.7324 7.37325 19.7324 11.1332C19.7324 14.9332 16.8179 17.4932 13.3119 17.4932C9.84826 17.4932 6.9337 14.9332 6.9337 11.1332ZM26.2515 21.3332H32.2073L35.9244 15.6532C36.2201 15.2132 36.558 14.5732 36.558 14.5732H36.6425C36.6425 14.5732 36.9382 15.2532 37.2339 15.6532L40.9932 21.3332H46.9491L39.895 11.0132L43.4854 5.93325C43.9078 5.33325 44.2457 5.25325 45.1327 5.25325H46.6534V0.933247H42.9363C41.1199 0.933247 40.4019 1.29325 39.4303 2.85325L37.3183 6.21325C37.0227 6.73325 36.6425 7.53325 36.6425 7.53325H36.558C36.558 7.53325 36.1779 6.73325 35.8822 6.21325L33.7702 2.85325C32.7987 1.29325 32.0383 0.933247 30.2643 0.933247H26.5049V5.25325H28.0678C28.9548 5.25325 29.2927 5.33325 29.7151 5.93325L33.2633 11.0132L26.2515 21.3332ZM51.5391 14.0532C51.5391 19.6132 54.3692 21.8132 58.9734 21.8132C62.6905 21.8132 65.3939 19.6932 66.4076 17.5732H66.4921C66.4921 17.5732 66.4499 18.0132 66.4499 18.4932V19.0532C66.4499 20.4932 67.4214 21.3332 69.2799 21.3332H74.222V17.0532H72.5324C71.9411 17.0532 71.6031 16.7332 71.6031 16.1732V0.933247H66.2386V10.2932C66.2386 13.9332 64.0844 17.1732 60.1983 17.1732C57.5372 17.1732 56.8614 15.4932 56.8614 13.0132V3.61325C56.8614 1.77325 56.0166 0.933247 54.0313 0.933247H48.9203V5.25325H50.6099C51.2012 5.25325 51.5391 5.53325 51.5391 6.13325V14.0532ZM78.0658 21.3332H83.2614V16.2532H78.0658V21.3332ZM87.6543 15.4532C87.6543 19.5332 91.1602 21.8132 95.0041 21.8132C99.8617 21.8132 101.509 18.2132 101.509 18.2132H101.594C101.594 18.2132 101.551 18.5732 101.551 19.0932C101.551 20.2932 102.312 21.3332 104.297 21.3332H109.112V17.0532H107.423C106.831 17.0532 106.493 16.7332 106.493 16.1732V8.57325C106.493 4.01325 104.381 0.453247 97.2006 0.453247C94.9619 0.453247 89.3017 0.853247 89.3017 4.65325V6.81325H94.286V5.73325C94.286 4.61325 96.1868 4.37325 97.1583 4.37325C99.9039 4.37325 101.129 5.45325 101.129 8.37325V8.53325H100.453C96.9471 8.53325 87.6543 9.05325 87.6543 15.4532ZM93.0611 15.2132C93.0611 12.3732 97.4962 12.0132 100.284 12.0132H101.213V12.4932C101.213 14.9732 99.1859 17.8532 96.3135 17.8532C94.1171 17.8532 93.0611 16.5732 93.0611 15.2132ZM111.055 21.3332H127.782C129.768 21.3332 130.612 20.5332 130.612 18.6132V15.0132H125.755V16.1332C125.755 16.7332 125.417 17.0132 124.826 17.0132H120.095C118.701 17.0132 118.067 17.1332 118.067 17.1332V17.0532C118.067 17.0532 118.912 16.2932 119.883 15.1732L129.81 3.69325V0.933247H114.012C111.985 0.933247 111.14 1.77325 111.14 3.65325V7.29325H115.997V6.13325C115.997 5.57325 116.335 5.25325 116.927 5.25325H120.813C122.164 5.25325 122.798 5.17325 122.798 5.17325V5.25325C122.798 5.25325 121.953 5.97325 120.982 7.13325L111.055 18.6132V21.3332Z" fill="#1894A0"/>
</svg>